<svg xmlns="http://www.w3.org/2000/svg" viewBox="0 0 72.5 69.5">
  <defs>
    <style>
      .cls-1, .cls-2, .cls-3 {
        fill: none;
        stroke-linejoin: round;
        stroke-miterlimit: 10;
        stroke-width: 1.5px;
      }

      .cls-1, .cls-2 {
        stroke: #5edce6;
      }

      .cls-1, .cls-3 {
        stroke-linecap: round;
      }

      .cls-3 {
        stroke: #4b566b;
      }
    </style>
  </defs>
  <g id="icon_3" transform="translate(-1078.65 -648.55)">
    <g id="color" transform="translate(812.1 626.3)">
      <path id="Path_16" data-name="Path 16" class="cls-1" d="M275.1,73l-3.6,3.6,3.6,3.7"/>
      <path id="Path_17" data-name="Path 17" class="cls-1" d="M279.7,73l3.6,3.6-3.6,3.7"/>
      <g id="Group_12" data-name="Group 12">
        <g id="Group_11" data-name="Group 11">
          <path id="Path_18" data-name="Path 18" class="cls-1" d="M287.5,89.7,283,91l1.3-4.6,9.8-9.8,3.3,3.3Z"/>
          <line id="Line_13" data-name="Line 13" class="cls-2" x2="3.2" y2="3.3" transform="translate(291.5 79.2)"/>
          <line id="Line_14" data-name="Line 14" class="cls-1" x2="3.2" y2="3.3" transform="translate(284.3 86.4)"/>
        </g>
      </g>
      <g id="Group_13" data-name="Group 13">
        <path id="Path_19" data-name="Path 19" class="cls-2" d="M281,89.7H267.3V62.2h14.4l6.5,6.6v8.5"/>
        <path id="Path_20" data-name="Path 20" class="cls-1" d="M281.7,62.2v6.6h6.5"/>
      </g>
    </g>
    <g id="web" transform="translate(812.1 626.3)">
      <path id="Path_21" data-name="Path 21" class="cls-3" d="M285.5,58.7V27.6a4.653,4.653,0,0,1,4.6-4.6h36.8"/>
      <path id="Path_22" data-name="Path 22" class="cls-3" d="M338.3,34.6V68.2a4.653,4.653,0,0,1-4.6,4.6H295" transform="translate(0 -0.1)"/>
      <line id="Line_15" data-name="Line 15" class="cls-3" x2="52.8" transform="translate(285.5 34.5)"/>
      <circle id="Ellipse_10" data-name="Ellipse 10" class="cls-3" cx="1.1" cy="1.1" r="1.1" transform="translate(292.4 27.6)"/>
      <circle id="Ellipse_11" data-name="Ellipse 11" class="cls-3" cx="1.1" cy="1.1" r="1.1" transform="translate(299.3 27.6)"/>
      <circle id="Ellipse_12" data-name="Ellipse 12" class="cls-3" cx="1.1" cy="1.1" r="1.1" transform="translate(306.2 27.6)"/>
      <line id="Line_16" data-name="Line 16" class="cls-3" y2="38.3" transform="translate(306.2 34.5)"/>
      <g id="Group_25" data-name="Group 25" transform="translate(0 -0.3)">
        <line id="Line_17" data-name="Line 17" class="cls-3" x2="6.8" transform="translate(292.5 42.3)"/>
        <line id="Line_18" data-name="Line 18" class="cls-3" x2="6.8" transform="translate(292.5 46.9)"/>
        <line id="Line_19" data-name="Line 19" class="cls-3" x2="6.8" transform="translate(292.5 51.5)"/>
        <line id="Line_20" data-name="Line 20" class="cls-3" x2="6.8" transform="translate(292.5 56.1)"/>
        <line id="Line_21" data-name="Line 21" class="cls-3" x2="6.8" transform="translate(292.5 60.7)"/>
        <line id="Line_22" data-name="Line 22" class="cls-3" x2="6.8" transform="translate(292.5 65.3)"/>
      </g>
      <path id="Path_23" data-name="Path 23" class="cls-3" d="M299.3,69.9"/>
      <path id="Path_24" data-name="Path 24" class="cls-3" d="M292.5,69.9"/>
      <g id="Group_24" data-name="Group 24" transform="translate(0 -0.4)">
        <g id="Group_15" data-name="Group 15" transform="translate(0 1)">
          <path id="Path_25" data-name="Path 25" class="cls-3" d="M314.4,41.4l2.8,2.5-2.8,2.4"/>
          <line id="Line_23" data-name="Line 23" class="cls-3" x2="2.8" transform="translate(320 43.9)"/>
        </g>
        <g id="Group_16" data-name="Group 16" transform="translate(0 1)">
          <line id="Line_24" data-name="Line 24" class="cls-3" x2="8.5" transform="translate(314.7 64.3)"/>
          <line id="Line_25" data-name="Line 25" class="cls-3" x2="9" transform="translate(314.7 53.9)"/>
          <path id="Path_26" data-name="Path 26" class="cls-3" d="M318.2,50.5"/>
          <path id="Path_27" data-name="Path 27" class="cls-3" d="M314.7,50.5"/>
          <line id="Line_26" data-name="Line 26" class="cls-3" x2="5.7" transform="translate(320.6 60.8)"/>
          <line id="Line_27" data-name="Line 27" class="cls-3" x2="8.2" transform="translate(320.6 57.4)"/>
        </g>
      </g>
      <path id="Path_28" data-name="Path 28" class="cls-3" d="M318.2,70"/>
      <path id="Path_29" data-name="Path 29" class="cls-3" d="M314.7,70"/>
      <g id="Group_17" data-name="Group 17">
        <path id="Path_30" data-name="Path 30" class="cls-3" d="M326.9,23h6.8a4.653,4.653,0,0,1,4.6,4.6V35"/>
      </g>
    </g>
  </g>
</svg>
