<svg xmlns="http://www.w3.org/2000/svg" viewBox="0 0 72.5 69.5">
  <defs>
    <style>
      .cls-1, .cls-2, .cls-3 {
        fill: none;
        stroke-linejoin: round;
        stroke-miterlimit: 10;
        stroke-width: 1.5px;
      }

      .cls-1 {
        stroke: #4b566b;
      }

      .cls-1, .cls-3 {
        stroke-linecap: round;
      }

      .cls-2, .cls-3 {
        stroke: #d993f6;
      }
    </style>
  </defs>
  <g id="icon_4" transform="translate(-1217.05 -641.05)">
    <g id="web" transform="translate(812.1 626.8)">
      <path id="Path_31" data-name="Path 31" class="cls-1" d="M423.9,50.7V19.6a4.653,4.653,0,0,1,4.6-4.6h43.6a4.653,4.653,0,0,1,4.6,4.6V61.2a4.653,4.653,0,0,1-4.6,4.6H443.2"/>
      <line id="Line_28" data-name="Line 28" class="cls-1" x2="52.8" transform="translate(423.9 26.5)"/>
      <circle id="Ellipse_13" data-name="Ellipse 13" class="cls-1" cx="1.1" cy="1.1" r="1.1" transform="translate(430.8 19.6)"/>
      <circle id="Ellipse_14" data-name="Ellipse 14" class="cls-1" cx="1.1" cy="1.1" r="1.1" transform="translate(437.7 19.6)"/>
      <circle id="Ellipse_15" data-name="Ellipse 15" class="cls-1" cx="1.1" cy="1.1" r="1.1" transform="translate(444.6 19.6)"/>
      <g id="Group_33" data-name="Group 33" transform="translate(0 2.5)">
        <g id="Group_32" data-name="Group 32">
          <rect id="Rectangle_8" data-name="Rectangle 8" class="cls-1" width="6.9" height="20.7" transform="translate(463.3 33.3)"/>
          <line id="Line_29" data-name="Line 29" class="cls-1" x2="6.8" transform="translate(463.3 40.2)"/>
          <line id="Line_30" data-name="Line 30" class="cls-1" x2="6.8" transform="translate(463.3 47.1)"/>
        </g>
        <g id="Group_31" data-name="Group 31">
          <rect id="Rectangle_10" data-name="Rectangle 10" class="cls-1" width="27.1" height="16.1" transform="translate(430.8 33.4)"/>
          <path id="Path_37" data-name="Path 37" class="cls-1" d="M167.4,37.2l9.3-11.4,6.8,11.4Z" transform="translate(263.4 12.3)"/>
          <path id="Path_38" data-name="Path 38" class="cls-1" d="M171.81,31.152,176.7,25.8l7.34,8.338H173.464Z" transform="translate(273.4 15.3)"/>
        </g>
      </g>
    </g>
    <g id="color" transform="translate(950.5 620.1)">
      <g id="Group_13" data-name="Group 13">
        <path id="Path_19" data-name="Path 19" class="cls-2" d="M281,89.7H267.3V62.2h14.4l6.5,6.6v8.5"/>
        <path id="Path_20" data-name="Path 20" class="cls-3" d="M281.7,62.2v6.6h6.5"/>
      </g>
      <g id="Group_22" data-name="Group 22" transform="translate(-142.4 20.9)">
        <path id="Path_35" data-name="Path 35" class="cls-3" d="M425.1,67.485c2.575.161,2.253-2.253,3.058-3.219a2.519,2.519,0,0,1,3.46-.483C435.079,66.359,428.882,71.348,425.1,67.485Z" transform="translate(0 -2.442)"/>
        <line id="Line_34" data-name="Line 34" class="cls-3" x2="1.127" y2="1.127" transform="translate(432.262 59.732)"/>
        <path id="Path_36" data-name="Path 36" class="cls-3" d="M433.746,62.066l8.852-9.5c0-1.207.161-1.77-1.77-1.77L432.7,61.1" transform="translate(-1.484 0)"/>
      </g>
      <path id="Path_40" data-name="Path 40" class="cls-3" d="M15.7,56.2l-1.1-2.8-3.9,7.2L8,58,4.8,64.5h7.1" transform="translate(266.9 19.3)"/>
      <circle id="Ellipse_20" data-name="Ellipse 20" class="cls-3" cx="2" cy="2" r="2" transform="translate(271.6 68.1)"/>
    </g>
  </g>
</svg>
