<svg xmlns="http://www.w3.org/2000/svg" viewBox="0 0 39.1 38.9">
  <defs>
    <style>
      .cls-1, .cls-3 {
        fill: none;
        stroke-linecap: round;
        stroke-linejoin: round;
        stroke-miterlimit: 10;
        stroke-width: 1.5px;
      }

      .cls-1 {
        stroke: #4b566b;
      }

      .cls-2 {
        fill: #ae7ce6;
      }

      .cls-3 {
        stroke: #ae7ce6;
      }
    </style>
  </defs>
  <g id="icon_5" transform="translate(-0.05 -0.05)">
    <g id="Group_38" data-name="Group 38">
      <line id="Line_35" data-name="Line 35" class="cls-1" y1="1.9" transform="translate(25.8 5.7)"/>
      <line id="Line_36" data-name="Line 36" class="cls-1" y1="1.9" transform="translate(25.8 19.2)"/>
      <path id="Path_42" data-name="Path 42" class="cls-1" d="M28.7,10.5a2.9,2.9,0,1,0-2.9,2.9,2.9,2.9,0,1,1-2.9,2.9"/>
      <path id="Path_43" data-name="Path 43" class="cls-1" d="M13.2,14.3v-.9A12.6,12.6,0,1,1,25.8,26h-.9"/>
      <path id="Path_44" data-name="Path 44" class="cls-1" d="M.9,9.3l3.5,3.6L8,9.3"/>
      <path id="Path_45" data-name="Path 45" class="cls-1" d="M13.3,2.2a8.92,8.92,0,0,0-8.9,8.9v1.8"/>
    </g>
    <g id="Group_40" data-name="Group 40">
      <path id="Path_46" data-name="Path 46" class="cls-1" d="M6.4,30.6"/>
      <path id="Path_47" data-name="Path 47" class="cls-1" d="M1.7,32.6"/>
      <path id="Path_48" data-name="Path 48" class="cls-1" d="M6.5,26.1"/>
      <path id="Path_49" data-name="Path 49" class="cls-1" d="M1.7,24"/>
      <path id="Path_50" data-name="Path 50" class="cls-1" d="M12.8,32.5"/>
      <path id="Path_51" data-name="Path 51" class="cls-1" d="M14.8,37.2"/>
      <path id="Path_52" data-name="Path 52" class="cls-1" d="M8.2,32.5"/>
      <path id="Path_53" data-name="Path 53" class="cls-1" d="M6.2,37.2"/>
      <path id="Path_54" data-name="Path 54" class="cls-1" d="M14.7,26.1"/>
      <path id="Path_55" data-name="Path 55" class="cls-1" d="M19.4,24.1"/>
      <path id="Path_56" data-name="Path 56" class="cls-1" d="M14.7,30.7"/>
      <path id="Path_57" data-name="Path 57" class="cls-1" d="M19.4,32.7"/>
      <path id="Path_58" data-name="Path 58" class="cls-1" d="M6.3,19.6"/>
      <path id="Path_59" data-name="Path 59" class="cls-1" d="M12.9,24.3"/>
      <path id="Path_60" data-name="Path 60" class="cls-1" d="M14.9,19.6"/>
      <g id="Group_39" data-name="Group 39" transform="translate(0.305 0.2)">
        <path id="Path_61" data-name="Path 61" class="cls-2" d="M4.435-4.822a1.8,1.8,0,0,1,1.037.65,1.918,1.918,0,0,1,.36,1.187,1.9,1.9,0,0,1-.72,1.558,3.011,3.011,0,0,1-1.944.58,4.218,4.218,0,0,1-1.343-.215,3.232,3.232,0,0,1-1.1-.6.651.651,0,0,1-.247-.5.621.621,0,0,1,.134-.4.4.4,0,0,1,.317-.167.478.478,0,0,1,.193.038q.086.038.236.124a4.636,4.636,0,0,0,.859.462,2.407,2.407,0,0,0,.892.161,1.628,1.628,0,0,0,1.053-.285A1.058,1.058,0,0,0,4.511-3.1a.992.992,0,0,0-.36-.843,1.835,1.835,0,0,0-1.112-.274H2.426a.462.462,0,0,1-.381-.167.591.591,0,0,1-.134-.381.585.585,0,0,1,.134-.387.469.469,0,0,1,.381-.161h.43q1.472,0,1.472-1.107a1.012,1.012,0,0,0-.312-.795A1.241,1.241,0,0,0,3.157-7.5a2.971,2.971,0,0,0-1.676.623q-.15.086-.236.124a.478.478,0,0,1-.193.038.4.4,0,0,1-.317-.167.621.621,0,0,1-.134-.4.584.584,0,0,1,.059-.274.874.874,0,0,1,.188-.231,3.45,3.45,0,0,1,1.08-.6A3.856,3.856,0,0,1,3.211-8.6a2.7,2.7,0,0,1,1.778.548,1.8,1.8,0,0,1,.661,1.461A1.958,1.958,0,0,1,5.322-5.5,1.81,1.81,0,0,1,4.435-4.822ZM9.721-.836A2.365,2.365,0,0,1,7.669-1.83a4.957,4.957,0,0,1-.709-2.9A4.935,4.935,0,0,1,7.669-7.61,2.365,2.365,0,0,1,9.721-8.6a2.365,2.365,0,0,1,2.052.994,4.935,4.935,0,0,1,.709,2.885,4.961,4.961,0,0,1-.709,2.89A2.36,2.36,0,0,1,9.721-.836Zm0-1.085a1.112,1.112,0,0,0,1.064-.671,5.078,5.078,0,0,0,.333-2.132,5.034,5.034,0,0,0-.333-2.132,1.113,1.113,0,0,0-1.064-.661,1.112,1.112,0,0,0-1.064.666,5.039,5.039,0,0,0-.333,2.127,5.078,5.078,0,0,0,.333,2.132A1.112,1.112,0,0,0,9.721-1.922Z" transform="translate(3.873 32.904)"/>
        <circle id="Ellipse_21" data-name="Ellipse 21" class="cls-3" cx="9.8" cy="9.8" r="9.8" transform="translate(0.495 18.4)"/>
      </g>
    </g>
  </g>
</svg>
