<svg xmlns="http://www.w3.org/2000/svg" viewBox="0 0 39 38.3">
  <defs>
    <style>
      .cls-1, .cls-2 {
        fill: none;
        stroke-linecap: round;
        stroke-linejoin: round;
        stroke-miterlimit: 10;
        stroke-width: 1.5px;
      }

      .cls-1 {
        stroke: #4b566b;
      }

      .cls-2 {
        stroke: #c3a29f;
      }
    </style>
  </defs>
  <g id="_3" data-name="3" transform="translate(0.05 0.05)">
    <g id="browser">
      <path id="Path_11" data-name="Path 11" class="cls-1" d="M12.9,31.8H4.6A3.9,3.9,0,0,1,.7,27.9V4.6A3.9,3.9,0,0,1,4.6.7H34.3a3.9,3.9,0,0,1,3.9,3.9V28.9a2.9,2.9,0,0,1-2.9,2.9H35"/>
      <line id="Line_4" data-name="Line 4" class="cls-1" x2="37.3" transform="translate(0.8 10.4)"/>
      <circle id="Ellipse_3" data-name="Ellipse 3" class="cls-1" cx="1" cy="1" r="1" transform="translate(5.8 4.6)"/>
      <circle id="Ellipse_4" data-name="Ellipse 4" class="cls-1" cx="1" cy="1" r="1" transform="translate(11.6 4.6)"/>
      <circle id="Ellipse_5" data-name="Ellipse 5" class="cls-1" cx="1" cy="1" r="1" transform="translate(17.3 4.6)"/>
    </g>
    <g id="diamond">
      <line id="Line_5" data-name="Line 5" class="cls-2" x1="20" transform="translate(13.9 25.9)"/>
      <path id="Path_12" data-name="Path 12" class="cls-2" d="M23.9,37.5l-10-11.6,4.6-6.1H29.3l4.6,6.1Z"/>
      <path id="Path_13" data-name="Path 13" class="cls-2" d="M18.5,19.8,20,25.9l3.9,11.6"/>
      <path id="Path_14" data-name="Path 14" class="cls-2" d="M29.3,19.8l-1.6,6.1L23.9,37.5"/>
    </g>
  </g>
</svg>
