<svg xmlns="http://www.w3.org/2000/svg" viewBox="0 0 72.5 64.798">
  <defs>
    <style>
      .cls-1, .cls-2 {
        fill: none;
        stroke-linecap: round;
        stroke-linejoin: round;
        stroke-miterlimit: 10;
        stroke-width: 1.5px;
      }

      .cls-1 {
        stroke: #4b566b;
      }

      .cls-2 {
        stroke: #9581ff;
      }
    </style>
  </defs>
  <g id="icon_7" transform="translate(-812.25 -629.95)">
    <g id="web" transform="translate(831.2 630.7)">
      <path id="Path_9" data-name="Path 9" class="cls-1" d="M19.1,39.051V9.007A4.656,4.656,0,0,1,23.7,4.4H67.3a4.656,4.656,0,0,1,4.6,4.607V49.166a4.656,4.656,0,0,1-4.6,4.607H31" transform="translate(-19.1 -4.4)"/>
      <line id="Line_1" data-name="Line 1" class="cls-1" x2="52.8" transform="translate(0 11.517)"/>
      <ellipse id="Ellipse_3" data-name="Ellipse 3" class="cls-1" cx="1.1" cy="1.102" rx="1.1" ry="1.102" transform="translate(6.9 4.607)"/>
      <ellipse id="Ellipse_4" data-name="Ellipse 4" class="cls-1" cx="1.1" cy="1.102" rx="1.1" ry="1.102" transform="translate(13.8 4.607)"/>
      <ellipse id="Ellipse_5" data-name="Ellipse 5" class="cls-1" cx="1.1" cy="1.102" rx="1.1" ry="1.102" transform="translate(20.7 4.607)"/>
      <g id="Group_55" data-name="Group 55" transform="translate(12.4 19.5)">
        <ellipse id="Ellipse_24" data-name="Ellipse 24" class="cls-1" cx="1.761" cy="1.761" rx="1.761" ry="1.761" transform="translate(12.239 12.239)"/>
        <line id="Line_45" data-name="Line 45" class="cls-1" y1="5.752" x2="5.752" transform="translate(15.291 6.957)"/>
        <line id="Line_46" data-name="Line 46" class="cls-1" x2="2.348" transform="translate(2.848 14.587)"/>
        <line id="Line_47" data-name="Line 47" class="cls-1" x1="2.348" transform="translate(22.804 14.587)"/>
        <line id="Line_48" data-name="Line 48" class="cls-1" x1="2.23" y2="0.822" transform="translate(22.1 9.774)"/>
        <line id="Line_49" data-name="Line 49" class="cls-1" x1="0.822" y2="2.23" transform="translate(17.404 3.67)"/>
        <line id="Line_50" data-name="Line 50" class="cls-1" y2="2.348" transform="translate(14 2.848)"/>
        <line id="Line_51" data-name="Line 51" class="cls-1" x2="0.822" y2="2.23" transform="translate(9.774 3.67)"/>
        <line id="Line_52" data-name="Line 52" class="cls-1" x2="1.643" y2="1.643" transform="translate(6.135 6.135)"/>
        <line id="Line_53" data-name="Line 53" class="cls-1" x2="2.23" y2="0.822" transform="translate(3.67 9.774)"/>
        <path id="Path_71" data-name="Path 71" class="cls-1" d="M14,.5A13.427,13.427,0,0,0,.5,14v5.283h27V14A13.427,13.427,0,0,0,14,.5Z" transform="translate(0 0)"/>
      </g>
    </g>
    <g id="gear" transform="translate(813 669)">
      <g id="Group_7" data-name="Group 7">
        <g id="Group_6" data-name="Group 6">
          <path id="Path_13" data-name="Path 13" class="cls-2" d="M166.722,56.871a7.656,7.656,0,0,0-3.209,1.858l-2.534-1.351L157.6,63.29l2.534,1.351a10.3,10.3,0,0,0,0,3.716L157.6,69.708l3.378,5.912,2.534-1.351a12.23,12.23,0,0,0,3.209,1.858V79h6.757V76.127a8.856,8.856,0,0,0,3.209-1.858l2.534,1.351,3.378-5.912-2.534-1.351a10.3,10.3,0,0,0,0-3.716L182.6,63.29l-3.378-5.912-2.534,1.351a12.23,12.23,0,0,0-3.209-1.858V54h-6.757Z" transform="translate(-157.6 -54)"/>
        </g>
        <ellipse id="Ellipse_9" data-name="Ellipse 9" class="cls-2" cx="4.561" cy="4.561" rx="4.561" ry="4.561" transform="translate(7.939 7.939)"/>
      </g>
    </g>
  </g>
</svg>
