<svg xmlns="http://www.w3.org/2000/svg" viewBox="0 0 40.7 41.6">
  <defs>
    <style>
      .cls-1, .cls-2 {
        fill: none;
        stroke-linejoin: round;
        stroke-miterlimit: 10;
      }

      .cls-1 {
        stroke: #93c100;
        stroke-width: 1.7px;
      }

      .cls-2 {
        stroke: #4b566b;
        stroke-linecap: round;
        stroke-width: 1.5px;
      }
    </style>
  </defs>
  <g id="_1" data-name="1" transform="translate(-0.05 -0.05)">
    <path id="star" class="cls-1" d="M10.3,21.8l3.5,6.9h6L14.6,33l2.6,7.8L10.3,36,3.4,40.8,6,33,.9,28.7h6Z"/>
    <g id="phone">
      <path id="Path_2" data-name="Path 2" class="cls-2" d="M6.5,20.5a2.865,2.865,0,0,1-1-2.2,2.9,2.9,0,0,1,2.9-2.9"/>
      <path id="Path_3" data-name="Path 3" class="cls-2" d="M26.9,31.4h2.9c2.8,0,5.1-1.6,5.1-4.4V25.4"/>
      <circle id="Ellipse_1" data-name="Ellipse 1" class="cls-2" cx="2.2" cy="2.2" r="2.2" transform="translate(22.5 29.2)"/>
      <path id="Path_4" data-name="Path 4" class="cls-2" d="M8.4,17.4V13.8a2.9,2.9,0,0,1,2.9-2.9h2.9V21.1"/>
      <path id="Path_5" data-name="Path 5" class="cls-2" d="M37.1,21.2a2.9,2.9,0,1,0,0-5.8"/>
      <path id="Path_6" data-name="Path 6" class="cls-2" d="M31.2,25.5h2.9A2.9,2.9,0,0,0,37,22.6V13.9A2.9,2.9,0,0,0,34.1,11H31.2V25.5Z"/>
      <path id="Path_7" data-name="Path 7" class="cls-2" d="M12.025,10.847C12.025,5.247,17.1.8,22.8.8,28.4.8,33.5,5.4,33.5,11"/>
    </g>
  </g>
</svg>
