<svg xmlns="http://www.w3.org/2000/svg" viewBox="0 0 72.5 64.798">
  <defs>
    <style>
      .cls-1, .cls-2, .cls-3, .cls-4 {
        fill: none;
        stroke-linejoin: round;
        stroke-miterlimit: 10;
      }

      .cls-1, .cls-2, .cls-3 {
        stroke: #4b566b;
      }

      .cls-1, .cls-3, .cls-4 {
        stroke-linecap: round;
      }

      .cls-1, .cls-4 {
        stroke-width: 1.5px;
      }

      .cls-2, .cls-3 {
        stroke-width: 1.3px;
      }

      .cls-4 {
        stroke: #93c100;
      }
    </style>
  </defs>
  <g id="icon_5" transform="translate(-812.25 -629.95)">
    <g id="web" transform="translate(831.2 630.7)">
      <path id="Path_9" data-name="Path 9" class="cls-1" d="M19.1,39.051V9.007A4.656,4.656,0,0,1,23.7,4.4H67.3a4.656,4.656,0,0,1,4.6,4.607V49.166a4.656,4.656,0,0,1-4.6,4.607H31" transform="translate(-19.1 -4.4)"/>
      <line id="Line_1" data-name="Line 1" class="cls-1" x2="52.8" transform="translate(0 11.517)"/>
      <ellipse id="Ellipse_3" data-name="Ellipse 3" class="cls-1" cx="1.1" cy="1.102" rx="1.1" ry="1.102" transform="translate(6.9 4.607)"/>
      <ellipse id="Ellipse_4" data-name="Ellipse 4" class="cls-1" cx="1.1" cy="1.102" rx="1.1" ry="1.102" transform="translate(13.8 4.607)"/>
      <ellipse id="Ellipse_5" data-name="Ellipse 5" class="cls-1" cx="1.1" cy="1.102" rx="1.1" ry="1.102" transform="translate(20.7 4.607)"/>
      <g id="Group_43" data-name="Group 43" transform="translate(12.4 16.1)">
        <g id="Group_41" data-name="Group 41" transform="translate(17.124 1.033)">
          <circle id="Ellipse_22" data-name="Ellipse 22" class="cls-2" cx="1.769" cy="1.769" r="1.769" transform="translate(3.419 3.537)"/>
          <path id="Path_62" data-name="Path 62" class="cls-2" d="M23.914,7.106a2.6,2.6,0,0,0-.118-.943l1.179-.707-1.179-2-1.179.707a3.361,3.361,0,0,0-1.651-.943V1.8H18.609V3.215a4.626,4.626,0,0,0-1.651.943l-1.179-.707-1.179,2,1.179.707a2.6,2.6,0,0,0-.118.943,2.6,2.6,0,0,0,.118.943L14.6,8.756l1.179,2,1.179-.707A3.361,3.361,0,0,0,18.609,11v1.3h2.358V11.114a4.626,4.626,0,0,0,1.651-.943l1.179.707,1.179-2L23.8,8.167A3.264,3.264,0,0,0,23.914,7.106Z" transform="translate(-14.6 -1.8)"/>
        </g>
        <rect id="Rectangle_11" data-name="Rectangle 11" class="cls-3" width="20.044" height="11.79" transform="translate(4.037 15.002)"/>
        <path id="Path_63" data-name="Path 63" class="cls-3" d="M23.544,13.248H3.5L6.379,5.177h7.141" transform="translate(0.537 1.755)"/>
        <rect id="Rectangle_12" data-name="Rectangle 12" class="cls-2" width="7.074" height="2.358" transform="translate(14.648 22.076)"/>
      </g>
    </g>
    <g id="gear" transform="translate(813 669)">
      <g id="Group_7" data-name="Group 7">
        <g id="Group_6" data-name="Group 6">
          <path id="Path_13" data-name="Path 13" class="cls-4" d="M166.722,56.871a7.656,7.656,0,0,0-3.209,1.858l-2.534-1.351L157.6,63.29l2.534,1.351a10.3,10.3,0,0,0,0,3.716L157.6,69.708l3.378,5.912,2.534-1.351a12.23,12.23,0,0,0,3.209,1.858V79h6.757V76.127a8.856,8.856,0,0,0,3.209-1.858l2.534,1.351,3.378-5.912-2.534-1.351a10.3,10.3,0,0,0,0-3.716L182.6,63.29l-3.378-5.912-2.534,1.351a12.23,12.23,0,0,0-3.209-1.858V54h-6.757Z" transform="translate(-157.6 -54)"/>
        </g>
        <ellipse id="Ellipse_9" data-name="Ellipse 9" class="cls-4" cx="4.561" cy="4.561" rx="4.561" ry="4.561" transform="translate(7.939 7.939)"/>
      </g>
    </g>
  </g>
</svg>
