<svg xmlns="http://www.w3.org/2000/svg" viewBox="0 0 72.5 64.798">
  <defs>
    <style>
      .cls-1, .cls-2, .cls-3 {
        fill: none;
        stroke-linecap: round;
        stroke-width: 1.5px;
      }

      .cls-1, .cls-2 {
        stroke: #4b566b;
      }

      .cls-1, .cls-3 {
        stroke-linejoin: round;
        stroke-miterlimit: 10;
      }

      .cls-3 {
        stroke: #ff8a8a;
      }
    </style>
  </defs>
  <g id="icon_6" transform="translate(-812.25 -629.95)">
    <g id="web" transform="translate(831.2 630.7)">
      <path id="Path_9" data-name="Path 9" class="cls-1" d="M19.1,39.051V9.007A4.656,4.656,0,0,1,23.7,4.4H67.3a4.656,4.656,0,0,1,4.6,4.607V49.166a4.656,4.656,0,0,1-4.6,4.607H31" transform="translate(-19.1 -4.4)"/>
      <line id="Line_1" data-name="Line 1" class="cls-1" x2="52.8" transform="translate(0 11.517)"/>
      <ellipse id="Ellipse_3" data-name="Ellipse 3" class="cls-1" cx="1.1" cy="1.102" rx="1.1" ry="1.102" transform="translate(6.9 4.607)"/>
      <ellipse id="Ellipse_4" data-name="Ellipse 4" class="cls-1" cx="1.1" cy="1.102" rx="1.1" ry="1.102" transform="translate(13.8 4.607)"/>
      <ellipse id="Ellipse_5" data-name="Ellipse 5" class="cls-1" cx="1.1" cy="1.102" rx="1.1" ry="1.102" transform="translate(20.7 4.607)"/>
      <g id="Group_50" data-name="Group 50" transform="translate(12.4 17)">
        <path id="Path_78" data-name="Path 78" class="cls-2" d="M0-2H27" transform="translate(0.5 27.5)"/>
        <rect id="Rectangle_13" data-name="Rectangle 13" class="cls-1" width="3.522" height="3.87" transform="translate(1.674 21.63)"/>
        <rect id="Rectangle_14" data-name="Rectangle 14" class="cls-1" width="3.522" height="9.739" transform="translate(8.717 15.761)"/>
        <rect id="Rectangle_15" data-name="Rectangle 15" class="cls-1" width="3.522" height="7.391" transform="translate(15.761 18.109)"/>
        <rect id="Rectangle_16" data-name="Rectangle 16" class="cls-1" width="3.522" height="15.609" transform="translate(22.804 9.891)"/>
        <circle id="Ellipse_25" data-name="Ellipse 25" class="cls-1" cx="1.174" cy="1.174" r="1.174" transform="translate(2.261 12.239)"/>
        <circle id="Ellipse_26" data-name="Ellipse 26" class="cls-1" cx="1.174" cy="1.174" r="1.174" transform="translate(9.304 6.37)"/>
        <circle id="Ellipse_27" data-name="Ellipse 27" class="cls-1" cx="1.174" cy="1.174" r="1.174" transform="translate(16.348 8.717)"/>
        <circle id="Ellipse_28" data-name="Ellipse 28" class="cls-1" cx="1.174" cy="1.174" r="1.174" transform="translate(23.391 0.5)"/>
        <line id="Line_55" data-name="Line 55" class="cls-1" y1="4.461" x2="5.165" transform="translate(4.374 8.248)"/>
        <line id="Line_56" data-name="Line 56" class="cls-1" x2="4.93" y2="1.643" transform="translate(11.535 7.896)"/>
        <line id="Line_57" data-name="Line 57" class="cls-1" x1="5.4" y2="6.339" transform="translate(18.343 2.613)"/>
      </g>
    </g>
    <g id="gear" transform="translate(813 669)">
      <g id="Group_7" data-name="Group 7">
        <g id="Group_6" data-name="Group 6">
          <path id="Path_13" data-name="Path 13" class="cls-3" d="M166.722,56.871a7.656,7.656,0,0,0-3.209,1.858l-2.534-1.351L157.6,63.29l2.534,1.351a10.3,10.3,0,0,0,0,3.716L157.6,69.708l3.378,5.912,2.534-1.351a12.23,12.23,0,0,0,3.209,1.858V79h6.757V76.127a8.856,8.856,0,0,0,3.209-1.858l2.534,1.351,3.378-5.912-2.534-1.351a10.3,10.3,0,0,0,0-3.716L182.6,63.29l-3.378-5.912-2.534,1.351a12.23,12.23,0,0,0-3.209-1.858V54h-6.757Z" transform="translate(-157.6 -54)"/>
        </g>
        <ellipse id="Ellipse_9" data-name="Ellipse 9" class="cls-3" cx="4.561" cy="4.561" rx="4.561" ry="4.561" transform="translate(7.939 7.939)"/>
      </g>
    </g>
  </g>
</svg>
